<mxfile host="app.diagrams.net" agent="Mozilla/5.0 (Windows NT 10.0; Win64; x64) AppleWebKit/537.36 (KHTML, like Gecko) Chrome/131.0.0.0 Safari/537.36 Edg/131.0.0.0" version="24.8.6">
  <diagram id="C5RBs43oDa-KdzZeNtuy" name="Page-1">
    <mxGraphModel dx="1026" dy="465" grid="1" gridSize="10" guides="1" tooltips="1" connect="1" arrows="1" fold="1" page="1" pageScale="1" pageWidth="827" pageHeight="1169" math="0" shadow="0">
      <root>
        <mxCell id="WIyWlLk6GJQsqaUBKTNV-0" />
        <mxCell id="WIyWlLk6GJQsqaUBKTNV-1" parent="WIyWlLk6GJQsqaUBKTNV-0" />
        <mxCell id="UdIMouhTVzL43tvmOWur-40" value="" style="endArrow=open;endFill=1;endSize=12;html=1;rounded=0;entryX=0.75;entryY=0;entryDx=0;entryDy=0;" parent="WIyWlLk6GJQsqaUBKTNV-1" edge="1">
          <mxGeometry width="160" relative="1" as="geometry">
            <mxPoint x="450" y="492" as="sourcePoint" />
            <mxPoint x="450" y="572" as="targetPoint" />
          </mxGeometry>
        </mxCell>
        <mxCell id="UdIMouhTVzL43tvmOWur-0" value="dcat:Resource" style="swimlane;fontStyle=0;childLayout=stackLayout;horizontal=1;startSize=26;fillColor=#e1d5e7;horizontalStack=0;resizeParent=1;resizeParentMax=0;resizeLast=0;collapsible=1;marginBottom=0;strokeColor=#9673a6;" parent="WIyWlLk6GJQsqaUBKTNV-1" vertex="1">
          <mxGeometry x="320" y="70" width="200" height="110" as="geometry" />
        </mxCell>
        <mxCell id="ygrVH6Lryje_UR6HZxb2-6" value="&lt;span style=&quot;color: rgb(0 , 0 , 0) ; font-family: &amp;quot;helvetica&amp;quot; ; font-size: 12px ; font-style: normal ; font-weight: 400 ; letter-spacing: normal ; text-align: left ; text-indent: 0px ; text-transform: none ; word-spacing: 0px ; background-color: rgb(248 , 249 , 250) ; display: inline ; float: none&quot;&gt;+ dcat:accessRights: rdfs:Literal[0..*]&lt;br&gt;+ dct:license: rdfs:Literal[0..*]&lt;br&gt;+ dct:rights: rdfs:Literal[0..*]&lt;br&gt;&lt;/span&gt;&lt;div&gt;&lt;span style=&quot;color: rgb(0 , 0 , 0) ; font-family: &amp;quot;helvetica&amp;quot; ; font-size: 12px ; font-style: normal ; font-weight: 400 ; letter-spacing: normal ; text-align: left ; text-indent: 0px ; text-transform: none ; word-spacing: 0px ; background-color: rgb(248 , 249 , 250) ; display: inline ; float: none&quot;&gt;+ dcat:theme: skos:Concept[0..*]&lt;/span&gt;&lt;/div&gt;" style="text;whiteSpace=wrap;html=1;" parent="UdIMouhTVzL43tvmOWur-0" vertex="1">
          <mxGeometry y="26" width="200" height="84" as="geometry" />
        </mxCell>
        <mxCell id="UdIMouhTVzL43tvmOWur-4" value="cssv:Specification" style="swimlane;fontStyle=0;childLayout=stackLayout;horizontal=1;startSize=26;fillColor=#fff2cc;horizontalStack=0;resizeParent=1;resizeParentMax=0;resizeLast=0;collapsible=1;marginBottom=0;strokeColor=#d6b656;" parent="WIyWlLk6GJQsqaUBKTNV-1" vertex="1">
          <mxGeometry x="190" y="350" width="460" height="140" as="geometry" />
        </mxCell>
        <mxCell id="ygrVH6Lryje_UR6HZxb2-25" value="+ dct:identifier: rdfs:Literal[0..*]&#xa;+ dct:title: rdfs:Literal[0..*]&#xa;+ cssv:acronym: rdfs:Literal[0..*]&#xa;+ cssv:alternative: rdfs:Literal[0..*]&#xa;+ dct:description: rdfs:Literal[0..*]&#xa;+ dct:type: skos:Concept[0..*]&#xa;+ dcat:version: rdfs:Literal[0..*]" style="text;strokeColor=none;fillColor=none;align=left;verticalAlign=top;spacingLeft=4;spacingRight=4;overflow=hidden;rotatable=0;points=[[0,0.5],[1,0.5]];portConstraint=eastwest;" parent="UdIMouhTVzL43tvmOWur-4" vertex="1">
          <mxGeometry y="26" width="460" height="114" as="geometry" />
        </mxCell>
        <mxCell id="ecFZ8Fj7cq7FcdqalWB2-0" style="edgeStyle=orthogonalEdgeStyle;rounded=0;orthogonalLoop=1;jettySize=auto;html=1;exitX=0;exitY=0.386;exitDx=0;exitDy=0;exitPerimeter=0;" parent="UdIMouhTVzL43tvmOWur-4" source="ygrVH6Lryje_UR6HZxb2-25" edge="1">
          <mxGeometry relative="1" as="geometry">
            <Array as="points">
              <mxPoint y="69" />
              <mxPoint x="-60" y="69" />
              <mxPoint x="-60" y="20" />
              <mxPoint x="-10" y="20" />
              <mxPoint x="-10" y="20" />
            </Array>
            <mxPoint x="-20" y="69" as="sourcePoint" />
            <mxPoint y="20" as="targetPoint" />
          </mxGeometry>
        </mxCell>
        <mxCell id="ecFZ8Fj7cq7FcdqalWB2-1" value="+dcat:previousVersion" style="edgeLabel;html=1;align=center;verticalAlign=middle;resizable=0;points=[];" parent="ecFZ8Fj7cq7FcdqalWB2-0" vertex="1" connectable="0">
          <mxGeometry x="0.6625" y="-1" relative="1" as="geometry">
            <mxPoint x="-51" y="-1" as="offset" />
          </mxGeometry>
        </mxCell>
        <mxCell id="UdIMouhTVzL43tvmOWur-7" value="dcat:Dataset" style="swimlane;fontStyle=0;childLayout=stackLayout;horizontal=1;startSize=26;fillColor=#e1d5e7;horizontalStack=0;resizeParent=1;resizeParentMax=0;resizeLast=0;collapsible=1;marginBottom=0;strokeColor=#9673a6;" parent="WIyWlLk6GJQsqaUBKTNV-1" vertex="1">
          <mxGeometry x="350" y="240" width="140" height="52" as="geometry" />
        </mxCell>
        <mxCell id="UdIMouhTVzL43tvmOWur-8" value="" style="endArrow=block;endSize=16;endFill=0;html=1;rounded=0;exitX=0.5;exitY=0;exitDx=0;exitDy=0;entryX=0.5;entryY=1;entryDx=0;entryDy=0;" parent="WIyWlLk6GJQsqaUBKTNV-1" source="UdIMouhTVzL43tvmOWur-4" target="UdIMouhTVzL43tvmOWur-7" edge="1">
          <mxGeometry width="160" relative="1" as="geometry">
            <mxPoint x="330" y="390" as="sourcePoint" />
            <mxPoint x="490" y="390" as="targetPoint" />
          </mxGeometry>
        </mxCell>
        <mxCell id="UdIMouhTVzL43tvmOWur-9" value="" style="endArrow=block;endSize=16;endFill=0;html=1;rounded=0;exitX=0.5;exitY=0;exitDx=0;exitDy=0;" parent="WIyWlLk6GJQsqaUBKTNV-1" source="UdIMouhTVzL43tvmOWur-7" target="UdIMouhTVzL43tvmOWur-0" edge="1">
          <mxGeometry width="160" relative="1" as="geometry">
            <mxPoint x="430" y="360" as="sourcePoint" />
            <mxPoint x="430" y="302" as="targetPoint" />
          </mxGeometry>
        </mxCell>
        <mxCell id="UdIMouhTVzL43tvmOWur-10" value="cssv:Standard" style="swimlane;fontStyle=0;childLayout=stackLayout;horizontal=1;startSize=26;fillColor=#fff2cc;horizontalStack=0;resizeParent=1;resizeParentMax=0;resizeLast=0;collapsible=1;marginBottom=0;strokeColor=#d6b656;" parent="WIyWlLk6GJQsqaUBKTNV-1" vertex="1">
          <mxGeometry x="190" y="570" width="140" height="52" as="geometry" />
        </mxCell>
        <mxCell id="UdIMouhTVzL43tvmOWur-11" value="cssv:ApplicationProfile" style="swimlane;fontStyle=0;childLayout=stackLayout;horizontal=1;startSize=26;fillColor=#fff2cc;horizontalStack=0;resizeParent=1;resizeParentMax=0;resizeLast=0;collapsible=1;marginBottom=0;strokeColor=#d6b656;" parent="WIyWlLk6GJQsqaUBKTNV-1" vertex="1">
          <mxGeometry x="350" y="570" width="140" height="52" as="geometry" />
        </mxCell>
        <mxCell id="UdIMouhTVzL43tvmOWur-12" value="cssv:Family" style="swimlane;fontStyle=0;childLayout=stackLayout;horizontal=1;startSize=26;fillColor=#fff2cc;horizontalStack=0;resizeParent=1;resizeParentMax=0;resizeLast=0;collapsible=1;marginBottom=0;strokeColor=#d6b656;" parent="WIyWlLk6GJQsqaUBKTNV-1" vertex="1">
          <mxGeometry x="510" y="570" width="140" height="52" as="geometry" />
        </mxCell>
        <mxCell id="UdIMouhTVzL43tvmOWur-14" value="" style="endArrow=block;endSize=16;endFill=0;html=1;rounded=0;exitX=0.5;exitY=0;exitDx=0;exitDy=0;" parent="WIyWlLk6GJQsqaUBKTNV-1" source="UdIMouhTVzL43tvmOWur-10" edge="1">
          <mxGeometry width="160" relative="1" as="geometry">
            <mxPoint x="259.5" y="550" as="sourcePoint" />
            <mxPoint x="260" y="490" as="targetPoint" />
          </mxGeometry>
        </mxCell>
        <mxCell id="UdIMouhTVzL43tvmOWur-15" value="" style="endArrow=block;endSize=16;endFill=0;html=1;rounded=0;entryX=0.5;entryY=1;entryDx=0;entryDy=0;" parent="WIyWlLk6GJQsqaUBKTNV-1" source="UdIMouhTVzL43tvmOWur-11" edge="1">
          <mxGeometry width="160" relative="1" as="geometry">
            <mxPoint x="430" y="572" as="sourcePoint" />
            <mxPoint x="420" y="492.0000000000001" as="targetPoint" />
          </mxGeometry>
        </mxCell>
        <mxCell id="UdIMouhTVzL43tvmOWur-16" value="" style="endArrow=block;endSize=16;endFill=0;html=1;rounded=0;entryX=0.5;entryY=1;entryDx=0;entryDy=0;" parent="WIyWlLk6GJQsqaUBKTNV-1" edge="1">
          <mxGeometry width="160" relative="1" as="geometry">
            <mxPoint x="590" y="570" as="sourcePoint" />
            <mxPoint x="590" y="492" as="targetPoint" />
          </mxGeometry>
        </mxCell>
        <mxCell id="UdIMouhTVzL43tvmOWur-28" value="dct:Standard" style="swimlane;fontStyle=0;childLayout=stackLayout;horizontal=1;startSize=26;fillColor=#f5f5f5;horizontalStack=0;resizeParent=1;resizeParentMax=0;resizeLast=0;collapsible=1;marginBottom=0;strokeColor=#666666;fontColor=#333333;" parent="WIyWlLk6GJQsqaUBKTNV-1" vertex="1">
          <mxGeometry x="190" y="680" width="140" height="52" as="geometry" />
        </mxCell>
        <mxCell id="UdIMouhTVzL43tvmOWur-29" value="" style="endArrow=block;endSize=16;endFill=0;html=1;rounded=0;exitX=0.5;exitY=1;exitDx=0;exitDy=0;" parent="WIyWlLk6GJQsqaUBKTNV-1" source="UdIMouhTVzL43tvmOWur-10" target="UdIMouhTVzL43tvmOWur-28" edge="1">
          <mxGeometry width="160" relative="1" as="geometry">
            <mxPoint x="270" y="580" as="sourcePoint" />
            <mxPoint x="270" y="500" as="targetPoint" />
          </mxGeometry>
        </mxCell>
        <mxCell id="UdIMouhTVzL43tvmOWur-30" value="prof:Profile" style="swimlane;fontStyle=0;childLayout=stackLayout;horizontal=1;startSize=26;fillColor=#d5e8d4;horizontalStack=0;resizeParent=1;resizeParentMax=0;resizeLast=0;collapsible=1;marginBottom=0;strokeColor=#82b366;" parent="WIyWlLk6GJQsqaUBKTNV-1" vertex="1">
          <mxGeometry x="350" y="680" width="140" height="52" as="geometry" />
        </mxCell>
        <mxCell id="UdIMouhTVzL43tvmOWur-31" value="+cssv:isAspectOf" style="endArrow=open;endFill=1;endSize=12;html=1;rounded=0;exitX=0.5;exitY=1;exitDx=0;exitDy=0;entryX=0.5;entryY=0;entryDx=0;entryDy=0;" parent="WIyWlLk6GJQsqaUBKTNV-1" source="UdIMouhTVzL43tvmOWur-11" target="UdIMouhTVzL43tvmOWur-30" edge="1">
          <mxGeometry width="160" relative="1" as="geometry">
            <mxPoint x="140" y="480" as="sourcePoint" />
            <mxPoint x="300" y="480" as="targetPoint" />
          </mxGeometry>
        </mxCell>
        <mxCell id="UdIMouhTVzL43tvmOWur-34" value="" style="endArrow=open;endFill=1;endSize=12;html=1;rounded=0;entryX=0.75;entryY=0;entryDx=0;entryDy=0;" parent="WIyWlLk6GJQsqaUBKTNV-1" target="UdIMouhTVzL43tvmOWur-12" edge="1">
          <mxGeometry width="160" relative="1" as="geometry">
            <mxPoint x="615" y="490" as="sourcePoint" />
            <mxPoint x="300" y="480" as="targetPoint" />
          </mxGeometry>
        </mxCell>
        <mxCell id="UdIMouhTVzL43tvmOWur-35" value="" style="endArrow=open;endFill=1;endSize=12;html=1;rounded=0;exitX=0.75;exitY=0;exitDx=0;exitDy=0;" parent="WIyWlLk6GJQsqaUBKTNV-1" source="UdIMouhTVzL43tvmOWur-12" edge="1">
          <mxGeometry width="160" relative="1" as="geometry">
            <mxPoint x="140" y="480" as="sourcePoint" />
            <mxPoint x="615" y="490" as="targetPoint" />
          </mxGeometry>
        </mxCell>
        <mxCell id="UdIMouhTVzL43tvmOWur-36" value="+cssv:combines" style="edgeLabel;html=1;align=center;verticalAlign=middle;resizable=0;points=[];" parent="UdIMouhTVzL43tvmOWur-35" vertex="1" connectable="0">
          <mxGeometry x="-0.6" y="2" relative="1" as="geometry">
            <mxPoint x="27" y="-34" as="offset" />
          </mxGeometry>
        </mxCell>
        <mxCell id="UdIMouhTVzL43tvmOWur-37" value="+cssv:combinedIn" style="edgeLabel;html=1;align=center;verticalAlign=middle;resizable=0;points=[];" parent="WIyWlLk6GJQsqaUBKTNV-1" vertex="1" connectable="0">
          <mxGeometry x="640" y="550" as="geometry" />
        </mxCell>
        <mxCell id="UdIMouhTVzL43tvmOWur-38" value="" style="endArrow=open;endFill=1;endSize=12;html=1;rounded=0;exitX=0.75;exitY=0;exitDx=0;exitDy=0;" parent="WIyWlLk6GJQsqaUBKTNV-1" edge="1">
          <mxGeometry width="160" relative="1" as="geometry">
            <mxPoint x="450" y="572" as="sourcePoint" />
            <mxPoint x="450" y="492" as="targetPoint" />
          </mxGeometry>
        </mxCell>
        <mxCell id="UdIMouhTVzL43tvmOWur-39" value="+cssv:configures" style="edgeLabel;html=1;align=center;verticalAlign=middle;resizable=0;points=[];" parent="UdIMouhTVzL43tvmOWur-38" vertex="1" connectable="0">
          <mxGeometry x="-0.6" y="2" relative="1" as="geometry">
            <mxPoint x="22" y="-34" as="offset" />
          </mxGeometry>
        </mxCell>
        <mxCell id="UdIMouhTVzL43tvmOWur-41" value="+cssv:configuredIn" style="edgeLabel;html=1;align=center;verticalAlign=middle;resizable=0;points=[];" parent="WIyWlLk6GJQsqaUBKTNV-1" vertex="1" connectable="0">
          <mxGeometry x="470" y="550" as="geometry" />
        </mxCell>
        <mxCell id="UdIMouhTVzL43tvmOWur-42" value="dcat:Distribution" style="swimlane;fontStyle=0;childLayout=stackLayout;horizontal=1;startSize=26;fillColor=#e1d5e7;horizontalStack=0;resizeParent=1;resizeParentMax=0;resizeLast=0;collapsible=1;marginBottom=0;strokeColor=#9673a6;" parent="WIyWlLk6GJQsqaUBKTNV-1" vertex="1">
          <mxGeometry x="5" y="226" width="230" height="80" as="geometry">
            <mxRectangle x="70" y="240" width="100" height="26" as="alternateBounds" />
          </mxGeometry>
        </mxCell>
        <mxCell id="ygrVH6Lryje_UR6HZxb2-3" value="+ dcat:accessURL: rdfs:Resource[0..*]&#xa;+ dcat:downloadURL: rdfs:Resource[0..*]" style="text;strokeColor=none;fillColor=none;align=left;verticalAlign=top;spacingLeft=4;spacingRight=4;overflow=hidden;rotatable=0;points=[[0,0.5],[1,0.5]];portConstraint=eastwest;" parent="UdIMouhTVzL43tvmOWur-42" vertex="1">
          <mxGeometry y="26" width="230" height="54" as="geometry" />
        </mxCell>
        <mxCell id="UdIMouhTVzL43tvmOWur-43" value="+dcat:distribution" style="endArrow=open;endFill=1;endSize=12;html=1;rounded=0;entryX=1.009;entryY=0.259;entryDx=0;entryDy=0;entryPerimeter=0;" parent="WIyWlLk6GJQsqaUBKTNV-1" target="ygrVH6Lryje_UR6HZxb2-3" edge="1">
          <mxGeometry x="-0.0011" width="160" relative="1" as="geometry">
            <mxPoint x="350" y="266" as="sourcePoint" />
            <mxPoint x="250" y="266" as="targetPoint" />
            <mxPoint as="offset" />
          </mxGeometry>
        </mxCell>
        <mxCell id="UdIMouhTVzL43tvmOWur-44" value="foaf:Agent" style="swimlane;fontStyle=0;childLayout=stackLayout;horizontal=1;startSize=26;fillColor=#f8cecc;horizontalStack=0;resizeParent=1;resizeParentMax=0;resizeLast=0;collapsible=1;marginBottom=0;strokeColor=#b85450;" parent="WIyWlLk6GJQsqaUBKTNV-1" vertex="1">
          <mxGeometry x="640" y="99" width="140" height="52" as="geometry" />
        </mxCell>
        <mxCell id="UdIMouhTVzL43tvmOWur-45" value="+dct:creator" style="endArrow=open;endFill=1;endSize=12;html=1;rounded=0;exitX=1;exitY=0.5;exitDx=0;exitDy=0;entryX=0;entryY=0.5;entryDx=0;entryDy=0;" parent="WIyWlLk6GJQsqaUBKTNV-1" source="UdIMouhTVzL43tvmOWur-0" target="UdIMouhTVzL43tvmOWur-44" edge="1">
          <mxGeometry width="160" relative="1" as="geometry">
            <mxPoint x="140" y="390" as="sourcePoint" />
            <mxPoint x="300" y="390" as="targetPoint" />
          </mxGeometry>
        </mxCell>
        <mxCell id="UdIMouhTVzL43tvmOWur-46" value="+cssv:isMaintainedby" style="endArrow=open;endFill=1;endSize=12;html=1;rounded=0;exitX=1;exitY=0.25;exitDx=0;exitDy=0;entryX=1;entryY=0.1;entryDx=0;entryDy=0;entryPerimeter=0;" parent="WIyWlLk6GJQsqaUBKTNV-1" source="UdIMouhTVzL43tvmOWur-4" target="ygrVH6Lryje_UR6HZxb2-35" edge="1">
          <mxGeometry x="0.5809" width="160" relative="1" as="geometry">
            <mxPoint x="140" y="390" as="sourcePoint" />
            <mxPoint x="300" y="390" as="targetPoint" />
            <Array as="points">
              <mxPoint x="690" y="385" />
            </Array>
            <mxPoint as="offset" />
          </mxGeometry>
        </mxCell>
        <mxCell id="ygrVH6Lryje_UR6HZxb2-12" value="cssv:Standard" style="swimlane;fontStyle=0;childLayout=stackLayout;horizontal=1;startSize=26;fillColor=#fff2cc;horizontalStack=0;resizeParent=1;resizeParentMax=0;resizeLast=0;collapsible=1;marginBottom=0;strokeColor=#d6b656;" parent="WIyWlLk6GJQsqaUBKTNV-1" vertex="1">
          <mxGeometry x="190" y="570" width="140" height="52" as="geometry" />
        </mxCell>
        <mxCell id="ygrVH6Lryje_UR6HZxb2-13" value="cssv:ApplicationProfile" style="swimlane;fontStyle=0;childLayout=stackLayout;horizontal=1;startSize=26;fillColor=#fff2cc;horizontalStack=0;resizeParent=1;resizeParentMax=0;resizeLast=0;collapsible=1;marginBottom=0;strokeColor=#d6b656;" parent="WIyWlLk6GJQsqaUBKTNV-1" vertex="1">
          <mxGeometry x="350" y="570" width="140" height="52" as="geometry" />
        </mxCell>
        <mxCell id="ygrVH6Lryje_UR6HZxb2-14" value="cssv:Family" style="swimlane;fontStyle=0;childLayout=stackLayout;horizontal=1;startSize=26;fillColor=#fff2cc;horizontalStack=0;resizeParent=1;resizeParentMax=0;resizeLast=0;collapsible=1;marginBottom=0;strokeColor=#d6b656;" parent="WIyWlLk6GJQsqaUBKTNV-1" vertex="1">
          <mxGeometry x="510" y="570" width="140" height="52" as="geometry" />
        </mxCell>
        <mxCell id="ygrVH6Lryje_UR6HZxb2-15" value="dct:Standard" style="swimlane;fontStyle=0;childLayout=stackLayout;horizontal=1;startSize=26;fillColor=#f5f5f5;horizontalStack=0;resizeParent=1;resizeParentMax=0;resizeLast=0;collapsible=1;marginBottom=0;strokeColor=#666666;fontColor=#333333;" parent="WIyWlLk6GJQsqaUBKTNV-1" vertex="1">
          <mxGeometry x="190" y="680" width="140" height="52" as="geometry" />
        </mxCell>
        <mxCell id="ygrVH6Lryje_UR6HZxb2-16" value="" style="endArrow=block;endSize=16;endFill=0;html=1;rounded=0;exitX=0.5;exitY=1;exitDx=0;exitDy=0;" parent="WIyWlLk6GJQsqaUBKTNV-1" source="ygrVH6Lryje_UR6HZxb2-12" target="ygrVH6Lryje_UR6HZxb2-15" edge="1">
          <mxGeometry width="160" relative="1" as="geometry">
            <mxPoint x="270" y="580" as="sourcePoint" />
            <mxPoint x="270" y="500" as="targetPoint" />
          </mxGeometry>
        </mxCell>
        <mxCell id="ygrVH6Lryje_UR6HZxb2-17" value="prof:Profile" style="swimlane;fontStyle=0;childLayout=stackLayout;horizontal=1;startSize=26;fillColor=#d5e8d4;horizontalStack=0;resizeParent=1;resizeParentMax=0;resizeLast=0;collapsible=1;marginBottom=0;strokeColor=#82b366;" parent="WIyWlLk6GJQsqaUBKTNV-1" vertex="1">
          <mxGeometry x="350" y="680" width="140" height="52" as="geometry" />
        </mxCell>
        <mxCell id="ygrVH6Lryje_UR6HZxb2-18" value="+cssv:isAspectOf" style="endArrow=open;endFill=1;endSize=12;html=1;rounded=0;exitX=0.5;exitY=1;exitDx=0;exitDy=0;entryX=0.5;entryY=0;entryDx=0;entryDy=0;" parent="WIyWlLk6GJQsqaUBKTNV-1" source="ygrVH6Lryje_UR6HZxb2-13" target="ygrVH6Lryje_UR6HZxb2-17" edge="1">
          <mxGeometry width="160" relative="1" as="geometry">
            <mxPoint x="140" y="480" as="sourcePoint" />
            <mxPoint x="300" y="480" as="targetPoint" />
          </mxGeometry>
        </mxCell>
        <mxCell id="ygrVH6Lryje_UR6HZxb2-19" value="+cssv:combinedIn" style="edgeLabel;html=1;align=center;verticalAlign=middle;resizable=0;points=[];" parent="WIyWlLk6GJQsqaUBKTNV-1" vertex="1" connectable="0">
          <mxGeometry x="640" y="550" as="geometry" />
        </mxCell>
        <mxCell id="ygrVH6Lryje_UR6HZxb2-21" value="" style="endArrow=block;endSize=16;endFill=0;html=1;rounded=0;exitX=0.5;exitY=0;exitDx=0;exitDy=0;" parent="WIyWlLk6GJQsqaUBKTNV-1" source="ygrVH6Lryje_UR6HZxb2-12" edge="1">
          <mxGeometry width="160" relative="1" as="geometry">
            <mxPoint x="259.5" y="550" as="sourcePoint" />
            <mxPoint x="260" y="490.0000000000001" as="targetPoint" />
          </mxGeometry>
        </mxCell>
        <mxCell id="ygrVH6Lryje_UR6HZxb2-22" value="" style="endArrow=block;endSize=16;endFill=0;html=1;rounded=0;entryX=0.5;entryY=1;entryDx=0;entryDy=0;" parent="WIyWlLk6GJQsqaUBKTNV-1" source="ygrVH6Lryje_UR6HZxb2-13" edge="1">
          <mxGeometry width="160" relative="1" as="geometry">
            <mxPoint x="430" y="572" as="sourcePoint" />
            <mxPoint x="420" y="492.0000000000001" as="targetPoint" />
          </mxGeometry>
        </mxCell>
        <mxCell id="ygrVH6Lryje_UR6HZxb2-23" value="" style="endArrow=open;endFill=1;endSize=12;html=1;rounded=0;" parent="WIyWlLk6GJQsqaUBKTNV-1" edge="1">
          <mxGeometry width="160" relative="1" as="geometry">
            <mxPoint x="450" y="570" as="sourcePoint" />
            <mxPoint x="450" y="492" as="targetPoint" />
          </mxGeometry>
        </mxCell>
        <mxCell id="ygrVH6Lryje_UR6HZxb2-24" value="+cssv:configures" style="edgeLabel;html=1;align=center;verticalAlign=middle;resizable=0;points=[];" parent="ygrVH6Lryje_UR6HZxb2-23" vertex="1" connectable="0">
          <mxGeometry x="-0.6" y="2" relative="1" as="geometry">
            <mxPoint x="22" y="-34" as="offset" />
          </mxGeometry>
        </mxCell>
        <mxCell id="ygrVH6Lryje_UR6HZxb2-20" value="+cssv:configuredIn" style="edgeLabel;html=1;align=center;verticalAlign=middle;resizable=0;points=[];" parent="WIyWlLk6GJQsqaUBKTNV-1" vertex="1" connectable="0">
          <mxGeometry x="470" y="550" as="geometry" />
        </mxCell>
        <mxCell id="ygrVH6Lryje_UR6HZxb2-26" value="&lt;font style=&quot;font-size: 9px&quot;&gt;Note that the descendants of the specifications are all &quot;disjoint&quot;.&amp;nbsp;&lt;/font&gt;" style="shape=note;whiteSpace=wrap;html=1;backgroundOutline=1;darkOpacity=0.05;size=18;" parent="WIyWlLk6GJQsqaUBKTNV-1" vertex="1">
          <mxGeometry x="520" y="240" width="120" height="64" as="geometry" />
        </mxCell>
        <mxCell id="ygrVH6Lryje_UR6HZxb2-28" value="" style="endArrow=none;dashed=1;html=1;rounded=0;fontSize=9;entryX=0.5;entryY=1;entryDx=0;entryDy=0;entryPerimeter=0;exitX=0.847;exitY=-0.011;exitDx=0;exitDy=0;exitPerimeter=0;" parent="WIyWlLk6GJQsqaUBKTNV-1" source="UdIMouhTVzL43tvmOWur-4" target="ygrVH6Lryje_UR6HZxb2-26" edge="1">
          <mxGeometry width="50" height="50" relative="1" as="geometry">
            <mxPoint x="510" y="286" as="sourcePoint" />
            <mxPoint x="560" y="236" as="targetPoint" />
          </mxGeometry>
        </mxCell>
        <mxCell id="ygrVH6Lryje_UR6HZxb2-29" value="sch:ContactPoint" style="swimlane;fontStyle=0;childLayout=stackLayout;horizontal=1;startSize=26;fillColor=#CC99FF;horizontalStack=0;resizeParent=1;resizeParentMax=0;resizeLast=0;collapsible=1;marginBottom=0;strokeColor=#b85450;" parent="WIyWlLk6GJQsqaUBKTNV-1" vertex="1">
          <mxGeometry x="815" y="210" width="140" height="52" as="geometry" />
        </mxCell>
        <mxCell id="ygrVH6Lryje_UR6HZxb2-30" value="+sch:contactPoint" style="endArrow=open;endFill=1;endSize=12;html=1;rounded=0;exitX=1;exitY=0.5;exitDx=0;exitDy=0;entryX=0.5;entryY=0;entryDx=0;entryDy=0;" parent="WIyWlLk6GJQsqaUBKTNV-1" source="UdIMouhTVzL43tvmOWur-44" target="ygrVH6Lryje_UR6HZxb2-29" edge="1">
          <mxGeometry x="0.3684" y="5" width="160" relative="1" as="geometry">
            <mxPoint x="820" y="210" as="sourcePoint" />
            <mxPoint x="930" y="180" as="targetPoint" />
            <mxPoint as="offset" />
            <Array as="points">
              <mxPoint x="885" y="125" />
            </Array>
          </mxGeometry>
        </mxCell>
        <mxCell id="ygrVH6Lryje_UR6HZxb2-31" value="&lt;font style=&quot;font-size: 9px&quot;&gt;The ContactPoint is an instance of a subclass of foaf:Agent (e.g. an org:Organization)&lt;/font&gt;" style="shape=note;whiteSpace=wrap;html=1;backgroundOutline=1;darkOpacity=0.05;size=18;" parent="WIyWlLk6GJQsqaUBKTNV-1" vertex="1">
          <mxGeometry x="815" y="292" width="120" height="64" as="geometry" />
        </mxCell>
        <mxCell id="ygrVH6Lryje_UR6HZxb2-32" value="" style="endArrow=none;dashed=1;html=1;rounded=0;fontSize=9;entryX=0.567;entryY=-0.031;entryDx=0;entryDy=0;entryPerimeter=0;exitX=0.5;exitY=1;exitDx=0;exitDy=0;" parent="WIyWlLk6GJQsqaUBKTNV-1" source="ygrVH6Lryje_UR6HZxb2-29" target="ygrVH6Lryje_UR6HZxb2-31" edge="1">
          <mxGeometry width="50" height="50" relative="1" as="geometry">
            <mxPoint x="870" y="260" as="sourcePoint" />
            <mxPoint x="590" y="314" as="targetPoint" />
          </mxGeometry>
        </mxCell>
        <mxCell id="ygrVH6Lryje_UR6HZxb2-33" value="0..*" style="text;html=1;align=center;verticalAlign=middle;resizable=0;points=[];autosize=1;strokeColor=none;fillColor=none;fontSize=9;" parent="WIyWlLk6GJQsqaUBKTNV-1" vertex="1">
          <mxGeometry x="890" y="190" width="30" height="20" as="geometry" />
        </mxCell>
        <mxCell id="ygrVH6Lryje_UR6HZxb2-34" value="1..*" style="text;html=1;align=center;verticalAlign=middle;resizable=0;points=[];autosize=1;strokeColor=none;fillColor=none;fontSize=9;" parent="WIyWlLk6GJQsqaUBKTNV-1" vertex="1">
          <mxGeometry x="600" y="100" width="30" height="20" as="geometry" />
        </mxCell>
        <mxCell id="ygrVH6Lryje_UR6HZxb2-35" value="1" style="text;html=1;align=center;verticalAlign=middle;resizable=0;points=[];autosize=1;strokeColor=none;fillColor=none;fontSize=9;" parent="WIyWlLk6GJQsqaUBKTNV-1" vertex="1">
          <mxGeometry x="670" y="151" width="20" height="20" as="geometry" />
        </mxCell>
        <mxCell id="ygrVH6Lryje_UR6HZxb2-36" value="0..*" style="text;html=1;align=center;verticalAlign=middle;resizable=0;points=[];autosize=1;strokeColor=none;fillColor=none;fontSize=9;" parent="WIyWlLk6GJQsqaUBKTNV-1" vertex="1">
          <mxGeometry x="235" y="272" width="30" height="20" as="geometry" />
        </mxCell>
        <mxCell id="ygrVH6Lryje_UR6HZxb2-38" value="1..*" style="text;html=1;align=center;verticalAlign=middle;resizable=0;points=[];autosize=1;strokeColor=none;fillColor=none;fontSize=9;" parent="WIyWlLk6GJQsqaUBKTNV-1" vertex="1">
          <mxGeometry x="455" y="490" width="30" height="20" as="geometry" />
        </mxCell>
        <mxCell id="ygrVH6Lryje_UR6HZxb2-39" value="0..*" style="text;html=1;align=center;verticalAlign=middle;resizable=0;points=[];autosize=1;strokeColor=none;fillColor=none;fontSize=9;" parent="WIyWlLk6GJQsqaUBKTNV-1" vertex="1">
          <mxGeometry x="455" y="555" width="30" height="20" as="geometry" />
        </mxCell>
        <mxCell id="ygrVH6Lryje_UR6HZxb2-40" value="1..*" style="text;html=1;align=center;verticalAlign=middle;resizable=0;points=[];autosize=1;strokeColor=none;fillColor=none;fontSize=9;" parent="WIyWlLk6GJQsqaUBKTNV-1" vertex="1">
          <mxGeometry x="625" y="490" width="30" height="20" as="geometry" />
        </mxCell>
        <mxCell id="ygrVH6Lryje_UR6HZxb2-41" value="0..*" style="text;html=1;align=center;verticalAlign=middle;resizable=0;points=[];autosize=1;strokeColor=none;fillColor=none;fontSize=9;" parent="WIyWlLk6GJQsqaUBKTNV-1" vertex="1">
          <mxGeometry x="620" y="555" width="30" height="20" as="geometry" />
        </mxCell>
        <mxCell id="ygrVH6Lryje_UR6HZxb2-42" value="1" style="text;html=1;align=center;verticalAlign=middle;resizable=0;points=[];autosize=1;strokeColor=none;fillColor=none;fontSize=9;" parent="WIyWlLk6GJQsqaUBKTNV-1" vertex="1">
          <mxGeometry x="430" y="660" width="20" height="20" as="geometry" />
        </mxCell>
        <mxCell id="fyoxizwTw6FokWHwGqxI-0" value="" style="endArrow=classic;html=1;rounded=0;" parent="WIyWlLk6GJQsqaUBKTNV-1" edge="1">
          <mxGeometry width="50" height="50" relative="1" as="geometry">
            <mxPoint x="650" y="408" as="sourcePoint" />
            <mxPoint x="760" y="150" as="targetPoint" />
            <Array as="points">
              <mxPoint x="760" y="408" />
            </Array>
          </mxGeometry>
        </mxCell>
        <mxCell id="fyoxizwTw6FokWHwGqxI-1" value="+cssv:isRecommendedBy" style="edgeLabel;html=1;align=center;verticalAlign=middle;resizable=0;points=[];" parent="fyoxizwTw6FokWHwGqxI-0" vertex="1" connectable="0">
          <mxGeometry x="0.7204" relative="1" as="geometry">
            <mxPoint y="-11" as="offset" />
          </mxGeometry>
        </mxCell>
        <mxCell id="fyoxizwTw6FokWHwGqxI-2" value="0..*" style="text;html=1;align=center;verticalAlign=middle;resizable=0;points=[];autosize=1;strokeColor=none;fillColor=none;fontSize=9;" parent="WIyWlLk6GJQsqaUBKTNV-1" vertex="1">
          <mxGeometry x="730" y="151" width="30" height="20" as="geometry" />
        </mxCell>
      </root>
    </mxGraphModel>
  </diagram>
</mxfile>
